<svg height="89" viewBox="0 0 88 89" width="88" xmlns="http://www.w3.org/2000/svg"><g fill="none" fill-rule="evenodd" transform=""><path d="m85.1183879 88.7766055h2.8375013v-2.8625351h-2.8375013z" fill="#df3838"/><path d="m75.1876877 22.9427688h5.9044231l5.4444736-1.8298668v-21.06817838h-36.8841915v21.06817838l5.4444736 1.8298668h5.9044232v2.8625352h-30.2959396c2.8991235-2.3627487 4.7606449-5.9730628 4.7606449-10.0183141v-4.2932437c0-5.16334168-3.893723-9.42684419-8.8751436-9.95883163-.4841108-.88306784-1.4044534-1.49019095-2.4737532-1.49019095h-2.8375012c-1.0692998 0-1.990529.60712311-2.4737532 1.49019095-4.9814206.53198744-8.87514355 4.79548995-8.87514355 9.95883163v4.2932437c0 4.0452513 1.86063475 7.6555654 4.76042315 10.0183141h-1.9229219c-7.03955666 0-12.7682015 5.777397-12.7682015 12.8808493v14.3115578c0 4.7353366 3.8176927 8.5864874 8.51139547 8.5864874v24.3298719h-8.51139547v2.8625351h82.2808866v-2.8625351h-7.0931989zm-48.2330882-18.45967332c3.2331688.66369849 5.6738942 3.55418593 5.6738942 7.01065072h-5.6738942zm-5.6750025 7.01065072h2.8375012v-8.58648741h-2.8375012zm0 2.8625352h8.5712443c-1.6052796.7643266-3.9249773 1.4307085-7.1530478 1.4307085-3.2710731 0-5.6003023-.6645929-7.1987104-1.4307085zm-2.8375013-9.87318592v7.01065072h-5.6738942c0-3.45646479 2.4407255-6.34695223 5.6738942-7.01065072zm-5.6601511 11.59929392c1.9535113 1.2665729 5.1172997 2.5671357 9.9158489 2.5671357 4.7996574 0 7.9634458-1.3005628 9.9169571-2.5671357-.157602 5.3869598-4.539869 9.7229146-9.9169571 9.7229146-5.3759799 0-9.7582469-4.3359548-9.9158489-9.7229146zm12.0216423 12.5854498-2.1057934 4.9535879-2.1049069-4.9535879zm-10.6171889 5.7250703v-5.7250703h3.3205038l3.7726952 8.880098v6.8621683h-9.9307003v-5.9878216c1.6469522-.5921407 2.8375013-2.1661884 2.8375013-4.0293744zm-2.8375013 21.4673367h9.9307003v-2.8625351h-9.9307003zm2.8375013 2.8614171v1.4318266c0 1.5782965-1.2727859 2.8625352-2.8375013 2.8625352v-4.2943618zm-2.8375013-8.5864874h9.9307003v-2.8625352h-9.9307003zm-2.83750123 8.5864874c-2.09094207 0-3.90059446-1.1590125-4.88521915-2.8614171h4.88521915zm1.41930478-22.8980452h-1.41930478v17.174093h-5.67389421v-14.3115578c0-5.0367739 3.7066398-9.2050151 8.51139544-9.9038216v5.6105778c0 .7895955-.6363929 1.4307086-1.41819645 1.4307086zm1.41819645 50.0904523h9.9307003v-2.8625352h-9.9307003zm12.7682015 0h9.9307003v-2.8625352h-9.9307003zm9.9307003-5.7250704h-9.9307003v-15.7422663h-2.8375012v15.7422663h-9.9307003v-14.3115578c3.1300957 0 5.6750025-2.5671357 5.6750025-5.7239523v-1.4318266h11.3488968v1.4318266c0 3.1568166 2.5446851 5.7239523 5.6750025 5.7239523zm0-17.1729749c-1.565602 0-2.8375013-1.2842387-2.8375013-2.8625352v-1.4318266h2.8375013zm-9.9307003-7.1557789h9.9307003v-2.8625351h-9.9307003zm0-5.7250703h9.9307003v-2.8625352h-9.9307003zm9.9307003-5.7250704h-9.9307003v-6.8621683l3.7715869-8.880098h3.3216121v5.7250703c0 1.863186 1.1896625 3.4372337 2.8375013 4.0293744zm1.4181965-8.5864874c-.7818036 0-1.4181965-.6411131-1.4181965-1.4307086v-5.7250703h19.8602922v7.1557789zm1.4181964 50.0904523h24.1170983v-47.2279171h-24.1170983zm19.8614005-50.0904523h4.2556978v-7.1557789h-4.2556978zm15.6045945-9.4713442-4.8894307 2.4676256 1.2692393 2.5602035 3.6201914-1.827407v13.9734472l-4.8894307 2.4669548 1.2692393 2.561098 3.6201914-1.8283015v13.9743417l-4.8894307 2.4667311 1.2692393 2.5604272 3.6201914-1.8274071v13.9734473l-4.8894307 2.4676256 1.2692393 2.5602035 3.6201914-1.827407v4.8402136h-8.5113955v-10.5650603l4.8903174-2.4667312-1.2701259-2.5604271-3.6201915 1.827407v-13.9734472l4.8903174-2.4676257-1.2701259-2.5602035-3.6201915 1.827407v-13.9736708l4.8903174-2.4676256-1.2701259-2.5602036-3.6201915 1.8274071v-14.8585277h8.5113955zm0-11.9959925v5.7250704h-2.8363929v-5.7250704h-2.8375013v5.7250704h-2.8375013v-5.7250704h-2.8375012v5.7250704h-2.8375013v-5.7250704h-2.8363929v5.6472513l-2.8375013-.9548493v-10.41747234h25.5352947v-2.86141709h-25.5352947v-2.86253518h31.2102972v2.86253518h-2.8375012v2.86141709h2.8375012v10.41747234l-2.8375012.9548493v-5.6472513h-2.8375013v5.7250704h-2.8375012v-5.7250704z" fill="#3e52aa"/><g fill="#df3838"><path d="m51.0705894 78.7582915v2.8625351h.2433854c2.2088665 0 4.2851789.8674146 5.8472343 2.4432513l2.006267-2.0239673c-2.0980353-2.1165453-4.8878791-3.2818191-7.8535013-3.2818191z"/><path d="m55.0882217 74.5375.4772393.7216156 2.3602619-1.5872412-.476131-.7216156c-1.7413803-2.6362337-4.6566851-4.2102814-7.797199-4.2102814v2.8625352c2.1889169 0 4.2220051 1.0979648 5.4358288 2.9349874z"/><path d="m85.1183879 78.7582915h-.2424987c-2.9665088 0-5.755466 1.1652738-7.8532796 3.2818191l2.0051587 2.0239673c1.5620554-1.5758367 3.6392544-2.4432513 5.8481209-2.4432513h.2424987z"/><path d="m78.7404937 72.9493643-.4772393.7207211 2.3613703 1.5872412.476131-.7207211c1.2147103-1.8361281 3.2469118-2.9340929 5.4358287-2.9340929v-2.8625352c-3.1405139 0-6.0558187 1.5740477-7.7960907 4.2093869z"/></g></g></svg>