<svg height="89" viewBox="0 0 88 89" width="88" xmlns="http://www.w3.org/2000/svg"><g fill="none" fill-rule="evenodd" transform=""><g fill="#3e52aa"><path d="m73.5139144 57.1992714-11.0933199-2.4868568v-3.5369674c4.2867304-3.1210377 7.093199-8.1915779 7.093199-13.9211206v-7.6291784c.2934811-.2933869.5696725-.6071231.8068513-.957309h6.2863476v-2.8625352h-2.8375012v-2.8625352c0-10.2392487-7.3305995-19.0824497-17.2100957-21.0243492-.4001008-1.09103266-1.4321612-1.87369598-2.6513048-1.87369598h-2.8375013c-1.2182569 0-2.251204.78266332-2.6510831 1.87369598-9.8797179 1.9418995-17.2092091 10.7851005-17.2092091 21.0243492v2.8625352h-2.8375012v2.8625352h6.2861259c.2382872.3501859.513592.6657111.8070731.959098v7.6273894c0 5.7295427 2.8062468 10.8000829 7.093199 13.9211206v3.5369674l-11.0935416 2.4868568c-8.5036373 1.9058969-14.4417532 9.3745175-14.4417532 18.1611432v13.4161909h70.93199v-13.4161909c0-8.7866257-5.9390026-16.2552463-14.4419748-18.1611432zm-42.3036172 28.714799h-11.3488967v-10.5536558c0-7.1296156 4.6254307-13.2205252 11.3488967-15.1326834zm31.8967859-28.116397-5.2990629 7.1287211-3.8686751-3.9030302 7.2463677-3.6554849zm-10.6171889.7556055-7.093199-3.5778895v-2.1279497c2.1620957 1.0044925 4.559597 1.5809799 7.093199 1.5809799 2.5333804 0 4.9311033-.5764874 7.093199-1.5809799v2.1279497zm-15.7553249-31.9565905-.3914559-.7913844h-2.2953149v-2.8625352c0-8.6222663 5.9935315-16.11883915 14.186398-18.07974619v6.63072359h2.8363929v-8.58648741h2.8375013v8.58648741h2.8375012v-6.63072359c8.1928665 1.96090704 14.186398 9.45747989 14.186398 18.07974619v2.8625352h-2.2953148l-.391456.7913844c-.633733 1.277083-1.9067405 2.0711508-3.322277 2.0711508h-24.8660958c-1.4175314 0-2.6903173-.7931734-3.322277-2.0711508zm1.5689269 4.6872588c.5619144.1572036 1.1488766.2464272 1.7533501.2464272h24.8643225c.6042519 0 1.1914357-.0901181 1.7533501-.2464272v5.0864171l-1.8954358.9557437c-1.7619949.8891056-3.7361209 1.3600453-5.7069219 1.3600453h-2.3265693c-.2371788 0-.4450982-.1538493-.5204634-.3792563l-.5220151-1.5800854c-.4641613-1.3958242-1.7551235-2.3339021-3.2132192-2.3339021s-2.7492796.9380779-3.2149924 2.3365855l-.5186902 1.5758367c-.0771386.2269723-.2857229.3808216-.5220151.3808216h-2.326791c-1.9723526 0-3.9455919-.4709397-5.7084735-1.3600453l-1.8954358-.9557437zm.2198892 8.3979774.405199.204387c2.1569975 1.0883492 4.5700151 1.6623768 6.9788211 1.6623768h2.326791c1.4580957 0 2.7490579-.9391959 3.2141058-2.3377035l.5193551-1.575613c.1516172-.4552865.8937431-.4534975 1.0424786-.0008945l.5222368 1.5791909c.4641612 1.3958242 1.7551234 2.3350201 3.2132191 2.3350201h2.3265693c2.4088061 0 4.8220453-.5740276 6.9781562-1.6623768l.4060856-.204387c-1.1482116 6.736495-6.9659647 11.8839598-13.9665088 11.8839598-7.0014307 0-12.8191839-5.1474648-13.9665088-11.8839598zm5.2695819 17.6850603 7.2465894 3.6548141-3.8686751 3.9028065-5.298398-7.1287211zm-9.7451688 28.5470855h17.0227909v-2.8625352h-17.0227909zm17.0227909-5.7250704h-17.0227909v-20.6365955l4.784806-1.0718015 12.2379849 16.4605277zm-2.180272-12.9515126 3.5995768-3.6293216 3.5984685 3.6311106-3.5984685 4.8402135zm5.0177733 18.676583h17.0238992v-2.8625352h-17.0238992zm17.0238992-5.7250704h-17.0238992v-5.2478693l12.2390932-16.462093 4.784806 1.0733668zm14.186398 5.7250704h-11.3488967v-25.6863392c6.7225793 1.9121582 11.3488967 8.0048567 11.3488967 15.1326834z"/><path d="m56.7455919 77.3275829h11.3488968v-2.8625352h-11.3488968z"/><path d="m21.279597 44.4101055v-.2410603c0-1.0393769-.2797381-2.0588517-.8086247-2.9454975l-4.8663778-8.1819623-4.8652696 8.180397c-.5291083.89-.80862465 1.9076859-.80862465 2.9470628v.2410603c0 3.1579347 2.54468515 5.7250704 5.67389425 5.7250704 3.1303173 0 5.6750025-2.5671357 5.6750025-5.7250704zm-8.5113955 0v-.2410603c0-.5196884.1400907-1.0279723.4043124-1.4727487l2.4320806-4.0906457 2.4331889 4.0915402c.264.4438819.4043123.9521658.4043123 1.4718542v.2410603c0 1.5794146-1.2718992 2.8625352-2.8375012 2.8625352-1.5644937 0-2.836393-1.2831206-2.836393-2.8625352z"/></g><path d="m19.8614005 58.7216633v-3.609196c.4224887-.1502713.8354458-.3231281 1.2382066-.5163341l2.5307204 2.5514824 6.0179143-6.0725729-2.5291688-2.5523769c.1912948-.4069849.3626398-.8244799.511597-1.2500251h3.5796272v-8.5864874h-3.5778539c-.1489572-.4255453-.3220755-.8430402-.5124836-1.2500252l2.5300554-2.5523768-6.018801-6.0725729-2.5300554 2.5514824c-.4034257-.1929824-.8163829-.3660628-1.2390932-.5163342v-3.6091959h-8.5131688v3.6091959c-.4224886.1502714-.8354458.3233518-1.2382065.5163342l-2.53094209-2.5514824-6.01769269 6.0725729 2.52916876 2.5523768c-.19129471.406985-.36286146.8244799-.51337028 1.2500252h-3.5778539v8.5864874h3.5778539c.14873552.4255452.32207557.8430402.51248363 1.2500251l-2.53005541 2.5523769 6.01791435 6.0725729 2.53072043-2.5514824c.404534.1914171.8174912.3651683 1.2399798.5163341v3.609196zm-9.2907607-7.1197764-.94827204-.5653065-2.04261965 2.0606407-2.00604534-2.0248618 2.04328464-2.0604171-.55925441-.9548492c-.46925945-.801-.82613602-1.6684146-1.05821663-2.5758568l-.27353148-1.0711307h-2.88848363v-2.8614171h2.88848363l.27353148-1.0735904c.23208061-.9076658.58895718-1.7750804 1.05821663-2.5760804l.55925441-.9546256-2.04328464-2.0606407 2.00604534-2.0257563 2.04261965 2.0615352.94827204-.5659774c.7931083-.4718342 1.6511637-.8298468 2.5515567-1.0648694l1.0642015-.2741558v-2.9159799h2.8375012v2.9159799l1.0642016.2759448c.9003929.2350226 1.7584483.5921407 2.5515566 1.0648693l.9482721.5650829 2.042398-2.0606407 2.006267 2.0248618-2.0432847 2.0615352.5592544.9537312c.4692595.8018944.8252494 1.669309 1.057995 2.5760804l.2737531 1.0726959h2.8884837v2.8614171h-2.8884837l-.2737531 1.0735905c-.2327456.9076658-.5887355 1.7750804-1.057995 2.5760804l-.5592544.9546256 2.0432847 2.0606407-2.006267 2.0257563-2.042398-2.0615352-.9482721.5659774c-.7931083.4718342-1.6511637.8298467-2.5515566 1.0648694l-1.0642016.2743793v2.9157563h-2.8375012v-2.9157563l-1.0642015-.2761683c-.900393-.2359171-1.7584484-.5939296-2.5515567-1.0664347z" fill="#df3838"/></g></svg>