<svg height="92" viewBox="0 0 167 92" width="167" xmlns="http://www.w3.org/2000/svg"><g fill="none" fill-rule="evenodd" transform=""><path d="m14.6548673 60.8468468h5.699115v-2.4594594h-5.699115z" fill="#3e52aa"/><g fill="#df3838" transform="translate(102)"><path d="m2.01435484 50.7333409h58.41795966v-2.0292814h-58.41795966zm54.38906456 10.1465934h2.0143548v-8.1173121h-2.0143548zm-26.1873549 0h2.0143549v-8.1173121h-2.0143549zm-26.18716934 0h2.01416936v-8.1173121h-2.01416936zm-2.01454032-14.2053429h22.15864516v-10.1465935h-22.15864516zm2.01454032-12.1758748h2.01416936v-2.0292813h-2.01416936zm0-30.44015397h2.01416936v-2.02928132h-2.01416936zm4.02889516 6.08821767h10.07195968v-4.0587495h-10.07195968zm12.08631448-6.08821767h2.0143549v-2.02928132h-2.0143549zm0 30.44015397h2.0143549v-2.0292813h-2.0143549zm-16.11520964-4.0585626h2.01416936v-24.3521232h-2.01416936zm4.02889516-14.2053429h10.07195968v-4.0587495h-10.07195968zm0 12.1758747h10.07195968v-4.0587495h-10.07195968zm0-6.0880308h10.07195968v-4.0587495h-10.07195968zm12.08631448 8.117499h2.0143549v-24.3521232h-2.0143549zm-12.08631448 4.0587495h10.07195968v-4.0587495h-10.07195968zm22.82490318 10.9835318 14.4417742-5.2002669 14.4408468 5.1965298.3385081 1.1958932h-29.5594516zm17.71-39.3944045.5759275 2.02928131h-7.6888629l.5761129-2.02928131zm-8.3044838-2.02946817h10.0719597v-2.02928132h-10.0719597zm16.8031693 31.99462837 1.9941371 7.030731-10.7678951-3.8741335zm-14.4794274-9.0630021-7.3216048 2.9506797 1.5020484-5.2955647zm11.2481129-2.3460061 1.5020484 5.2955646-7.3255-2.9495585zm-16.077-3.4781807 7.5414032-4.3427742 7.5445565 4.3438953.4301371 1.5157947-7.9746936 3.2145236-7.9750645-3.2145236zm5.5155484-5.5117598-4.7224194 2.7193491 1.3202742-4.6755688zm7.4534839-1.9562197 1.3252822 4.6744476-4.7235322-2.7182279zm-9.8475242-3.5512423h8.8390484l.4382984 1.5432628-4.8574517 2.7963347-4.858008-2.7963347zm1.4261855 29.0630082-10.7678952 3.8741335 1.9941371-7.030731zm-8.2197178-5.1107618.4935726-1.7383429.0139113.0366242 10.7059435-4.3143717 10.7053871 4.3143717.0139113-.0366242.4937581 1.7383429-11.2130565 4.0333367zm28.2812823 13.3164579h.0161371l-11.7196129-41.3274538h.6786855c.5562661 0 1.0071774-.45425257 1.0071774-1.01464066v-4.05874948c0-.56038809-.4509113-1.01464066-1.0071774-1.01464066h-12.0865c-.5562662 0-1.0073629.45425257-1.0073629 1.01464066v4.05874948c0 .56038809.4510967 1.01464066 1.0073629 1.01464066h.6786854l-11.511129 40.5865606h-2.2612339v-11.1612341c0-.5603881-.4510967-1.0146407-1.0073629-1.0146407h-1.0071774v-33.48407594c0-.56038809-.4507258-1.01464066-1.0069919-1.01464066h-4.0288952c-.5562661 0-1.0073629.45425257-1.0073629 1.01464066v3.04392197h-10.07177418v-3.04392197c0-.56038809-.45128226-1.01464066-1.0073629-1.01464066h-4.02889516c-.55608065 0-1.00717742.45425257-1.00717742 1.01464066v33.48407594h-1.00717742c-.55608065 0-1.00717742.4542526-1.00717742 1.0146407v16.2346242c0 .5603881.45109677 1.0146407 1.00717742 1.0146407h1.00717742v9.1323265c0 .5602012.45109677 1.0146406 1.00717742 1.0146406h4.02889516c.55608064 0 1.0073629-.4544394 1.0073629-1.0146406v-9.1323265h20.14391938v9.1323265c0 .5602012.4510968 1.0146406 1.0071774 1.0146406h4.0288952c.5562661 0 1.0069919-.4544394 1.0069919-1.0146406v-9.1323265h20.1442903v9.1323265c0 .5602012.4509113 1.0146406 1.0071774 1.0146406h4.0288952c.5562661 0 1.0071774-.4544394 1.0071774-1.0146406v-9.1323265h1.006992c.5564516 0 1.0073629-.4542526 1.0073629-1.0146407v-4.0585626c-.0051936-.0934292-.023371-.1857372-.0543468-.2739343z"/><path d="m6.01416935 43.0589363h4.02889515v-2.0294681h-4.02889515zm5.03625805-4.0589363h-6.04324998c-.55608065 0-1.00717742.4544394-1.00717742 1.0148275v4.0585626c0 .5603881.45109677 1.0148276 1.00717742 1.0148276h6.04324998c.5560807 0 1.0071774-.4544395 1.0071774-1.0148276v-4.0585626c0-.5603881-.4510967-1.0148275-1.0071774-1.0148275z"/><path d="m16.0145403 43.0589363h4.0287097v-2.0294681h-4.0287097zm5.0357016-4.0589363h-6.0430645c-.5560806 0-1.0071774.4544394-1.0071774 1.0148275v4.0585626c0 .5603881.4510968 1.0148276 1.0071774 1.0148276h6.0430645c.5562662 0 1.0073629-.4544395 1.0073629-1.0148276v-4.0585626c0-.5603881-.4510967-1.0148275-1.0073629-1.0148275z"/></g><path d="m89.0322536 83.0173954c0 3.3039084-2.6574269 5.9822932-5.9354826 5.9822932-3.2778703 0-5.9354826-2.6783848-5.9354826-5.9822932 0-3.3039083 2.6576123-5.9822931 5.9354826-5.9822931 3.2780557 0 5.9354826 2.6783848 5.9354826 5.9822931zm-62.3225672-14.9557329h62.3225672v-2.9911466h-62.3225672zm1.4838706 5.9822932c-.8192821 0-1.4838706.6696429-1.4838706 1.4955733v4.4867199h-3.4869106c-1.6302174-4.6667496-6.7056114-7.1179942-11.3360298-5.474733-2.53964461.9014568-4.53730547 2.9146854-5.43189398 5.474733h-3.48709603v-8.9734398h78.64514431v2.9911466zm46.5193448 5.9822932h-6.9740065c-.3897016-1.1035462-.9893708-2.1196013-1.7659916-2.9911466h10.5059897c-.7764353.8715453-1.3761046 1.8876004-1.7659916 2.9911466zm-15.3580612 8.9734397c-3.2778702 0-5.9354826-2.6783848-5.9354826-5.9822932 0-3.3039083 2.6576124-5.9822931 5.9354826-5.9822931 3.2780558 0 5.9354826 2.6783848 5.9354826 5.9822931 0 3.3039084-2.6574268 5.9822932-5.9354826 5.9822932zm-8.3838691-8.9734397h-6.4548374v-2.9911466h8.2208289c-.7764353.8715453-1.3761045 1.8876004-1.7659915 2.9911466zm-6.4548374 5.9822931h-14.8387064v-8.9734397h11.8709651v4.4867198c0 .8259304.6645886 1.4955733 1.4838707 1.4955733h1.4838706zm-29.6774129 2.9911466c-3.2778703 0-5.93548262-2.6783848-5.93548262-5.9822932 0-3.3039083 2.65761232-5.9822931 5.93548262-5.9822931 3.2780557 0 5.9354826 2.6783848 5.9354826 5.9822931 0 3.3039084-2.6574269 5.9822932-5.9354826 5.9822932zm-11.87096521-32.9026125h16.32257711c.8196531 0 1.4838707-.6696429 1.4838707-1.4955733v-19.4424528h2.9677413v32.9026125h-20.77418911zm0-4.2743484c-.00945967-3.571803 1.39891906-6.9990961 3.91148303-9.5178285l3.17863638-3.203518c2.0876206-2.1095061 4.8151603-3.4551482 7.7485871-3.8226853v17.8272337h-14.83870651zm87.54836821 10.2566416h-13.3548358-2.9677413-26.7096717-2.9677413-16.1370933-1.6693544v-28.4158926c0-.8259303-.6642176-1.4955733-1.4838707-1.4955733h-5.7245875c-4.3312329-.0119645-8.4875546 1.7232744-11.54154586 4.8187372l-3.17863641 3.203518c-3.07124128 3.0782637-4.79271671 7.2669906-4.78103123 11.6325691v29.6990944c0 .8259304.66458856 1.4955733 1.48387065 1.4955733h4.45161194c0 4.955956 3.98641849 8.9734398 8.90322391 8.9734398 4.9171763 0 8.9032239-4.0174838 8.9032239-8.9734398h2.9677413v4.4867199c0 .8259304.6645885 1.4955733 1.4838706 1.4955733h17.8064478c.819653 0 1.4838706-.6696429 1.4838706-1.4955733v-4.4867199h2.9677413c0 4.955956 3.9864185 8.9734398 8.9032239 8.9734398 4.9171764 0 8.9032239-4.0174838 8.9032239-8.9734398h5.9354826c-.0050081 4.955956 3.9773298 8.9775526 8.8945061 8.9826002 4.9168054.0048606 8.9069336-4.0085103 8.9119417-8.9644663.0046371-4.3822167-3.13208-8.1265714-7.4193533-8.856972v-3.1257482h5.9354826c.8196531 0 1.4838707-.669643 1.4838707-1.4955733v-5.9822932c0-.8259303-.6642176-1.4955733-1.4838707-1.4955733z" fill="#3e52aa"/><g transform="translate(90 63)"><rect height="14" rx="2" stroke="#3e52aa" stroke-width="3" width="54" x="16" y="5"/><circle cx="44" cy="20" fill="#fff" fill-rule="evenodd" r="9"/><g stroke="#3e52aa" stroke-width="3"><circle cx="44" cy="20" r="7.5"/><rect fill="#fff" height="6" rx="2" width="66" x="9"/><path d="m.5 3.5h8.06225775" stroke-linecap="square"/></g></g><g stroke="#df3838" stroke-width="3"><rect height="30" rx="5" width="23" x="48.5" y="30.5"/><rect height="22" rx="7.5" width="15" x="29.5" y="38.5"/><path d="m37 37v-8.4057954c.4501893-2.3961364 1.801713-3.5942046 4.0545711-3.5942046h7.708835c2.7269027.4947781 4.1391007 1.6928464 4.2365939 3.5942046"/></g><circle cx="82.5" cy="32.5" fill="#fff" fill-rule="evenodd" r="8.5"/><circle cx="82.5" cy="32.5" r="7" stroke="#df3838" stroke-width="3"/><ellipse cx="82.5" cy="54" fill="#fff" fill-rule="evenodd" rx="8.5" ry="8"/><ellipse cx="82.5" cy="54" rx="7" ry="6.5" stroke="#df3838" stroke-width="3"/><rect fill="#fff" fill-rule="evenodd" height="25" rx="2" width="4" x="81" y="30"/><rect height="22" rx=".5" stroke="#df3838" stroke-width="3" width="1" x="82.5" y="31.5"/></g></svg>