<?xml version="1.0" standalone="no"?>
<!DOCTYPE svg PUBLIC "-//W3C//DTD SVG 20010904//EN"
 "http://www.w3.org/TR/2001/REC-SVG-20010904/DTD/svg10.dtd">
<svg version="1.0" xmlns="http://www.w3.org/2000/svg"
 width="150.000000pt" height="150.000000pt" viewBox="0 0 150.000000 150.000000"
 preserveAspectRatio="xMidYMid meet">
<metadata>
Created by potrace 1.11, written by Peter Selinger 2001-2013
</metadata>
<g transform="translate(0.000000,150.000000) scale(0.100000,-0.100000)"
fill="#000000" stroke="none">
<path d="M0 1394 c0 -94 2 -105 15 -94 15 13 152 5 345 -20 106 -14 555 -60
583 -60 19 0 26 10 46 73 12 39 40 99 60 132 34 54 41 60 74 63 43 4 45 -3 13
-49 -66 -91 -113 -199 -88 -199 9 0 62 75 120 172 12 20 29 38 36 41 14 5 36
-10 36 -25 0 -5 -29 -47 -65 -93 -57 -75 -78 -115 -60 -115 16 0 58 37 96 85
24 30 49 55 55 55 6 0 19 -9 29 -20 18 -20 18 -22 -36 -78 -30 -31 -58 -60
-64 -64 -17 -13 -1 -17 110 -27 61 -6 129 -13 153 -17 l42 -5 0 175 0 176
-750 0 -750 0 0 -106z"/>
<path d="M0 720 l0 -560 23 0 c12 1 76 9 142 19 104 15 146 28 315 96 281 112
445 188 445 205 0 11 -31 20 -115 36 -291 53 -331 55 -380 19 -20 -15 -47 -25
-66 -25 -37 0 -68 25 -60 47 3 8 6 18 6 23 0 17 81 90 107 96 14 4 76 3 137
-2 247 -20 360 -8 392 41 20 31 12 56 -38 108 -34 36 -39 47 -36 79 l3 38
-150 -6 -150 -6 110 105 c61 58 107 107 104 111 -6 6 -142 25 -369 51 -74 8
-150 18 -169 22 -36 6 -37 2 -16 -50 6 -15 4 -16 -18 -8 -15 6 -68 35 -118 66
-51 30 -94 55 -96 55 -1 0 -3 -252 -3 -560z"/>
<path d="M1300 1073 c0 -5 11 -20 24 -32 50 -47 42 -107 -31 -233 l-46 -79 12
-72 c23 -130 8 -117 132 -117 l109 0 0 259 0 259 -47 6 c-27 3 -72 8 -100 12
-30 3 -53 2 -53 -3z"/>
<path d="M1160 981 c-15 -29 -12 -67 6 -85 21 -22 29 -20 53 10 27 34 27 59
-1 78 -30 21 -45 20 -58 -3z"/>
<path d="M1298 460 c5 -36 12 -37 40 -7 30 31 28 37 -11 37 -32 0 -33 -2 -29
-30z"/>
<path d="M893 413 c-12 -2 -27 -10 -33 -18 -8 -10 -4 -15 21 -24 46 -16 49
-14 49 19 0 17 -3 29 -7 29 -5 -1 -18 -4 -30 -6z"/>
<path d="M1469 106 c-5 -5 -276 -60 -424 -85 l-110 -19 283 -1 282 -1 0 55 c0
39 -4 55 -13 55 -8 0 -16 -2 -18 -4z"/>
</g>
</svg>
