<svg height="110" viewBox="0 0 110 110" width="110" xmlns="http://www.w3.org/2000/svg"><g fill="none" transform=""><path d="m74.9720968 53.2258065h.2998387c.4683871 0 .9279032.0816129 1.3679032.2412903l17.9690323 6.5325806 5.515968 9.193871h9.875161v-3.5483871h-7.866774l-5.1309679-8.5480645-15.5206452-5.6454839h.1312903v-15.9677419h-21.2903226v-5.3225807h3.5483871v-3.5483871h-3.5483871v-23.0645161h3.5483871v-3.5483871h-63.8709677v3.5483871h3.5483871v23.0645161h-3.5483871v3.5483871h3.5483871v24.8387097h-3.5483871v3.5483871h3.5483871v23.0645161h-3.5483871v3.5483871h35.483871v24.8387097h46.1290322v-14.1935484h16.7022581l5.3225807-5.3225806h6.362258v-3.5483871h-7.83129l-5.322581 5.3225806h-15.2332258v-25.7879032l-8.8620967-5.9080645c-1.117742-.7433871-1.7830646-1.988871-1.7830646-3.3319355 0-2.208871 1.7954839-4.0043548 4.0043549-4.0043548zm-67.87532261-49.6774194h49.67741931v23.0645161h-14.2751612c-.1845162-1.8416129-.8125807-3.5962903-1.9001613-5.1185484l-8.6633871-12.12661286-8.6633871 12.12661286c-1.0875807 1.5222581-1.7156452 3.2769355-1.9001613 5.1185484h-14.27516131zm49.67741931 26.6129032v5.3225807h-16.9258064c1.3164516-1.4672581 2.2301613-3.2964516 2.5725806-5.3225807zm-21.2903225 51.4516129h-28.38709681v-23.0645161h28.38709681zm0-26.6129032h-28.38709681v-24.8387097h14.35322581c.8480645 5.0262903 5.2196774 8.8709678 10.4854839 8.8709678 1.2454838 0 2.4359677-.2270968 3.5483871-.6209678zm-3.5483871-19.516129c-3.913871 0-7.0967742-3.1829033-7.0967742-7.0967742v-.7043549c0-1.4885484.4577419-2.915 1.3217742-4.125l5.775-8.0867742 5.775 8.085c.8640322 1.2117742 1.3217742 2.6382258 1.3217742 4.1267742v.7043549c0 3.9138709-3.1829033 7.0967742-7.0967742 7.0967742zm35.4838709 21.7462903c0 .8959677.165 1.7653226.4612904 2.5832258-2.6275807-1.9037097-5.8459678-3.0391936-9.3322581-3.0391936-8.8035484 0-15.9677419 7.1624194-15.9677419 15.967742s7.1641935 15.9677419 15.9677419 15.9677419 15.9677419-7.1624193 15.9677419-15.9677419c0-3.0462903-.8729032-5.8867742-2.3596774-8.3120968l5.9080645 3.9387097v38.0830646h-39.032258v-67.4193549h39.032258v11.1774193l-.211129-.0762903c-.8285484-.3033871-1.6979032-.4559677-2.5814516-.4559677h-.2998387c-4.1640323 0-7.552742 3.3887096-7.552742 7.5527419zm3.5483871 15.5117742c0 6.8466129-5.5709677 12.4193548-12.4193548 12.4193548s-12.4193548-5.5727419-12.4193548-12.4193548 5.5709677-12.4193549 12.4193548-12.4193549 12.4193548 5.572742 12.4193548 12.4193549z" fill="#3e52aa"/><g fill="#df3838"><path d="m43 43h3v3h-3z"/><path d="m71 43h3v3h-3z"/><path d="m71 100h3v3h-3z"/><path d="m43 100h3v3h-3z"/><path d="m56.625 67.25h3.75c1.033125 0 1.875.784 1.875 1.75h3.75c0-2.8945-2.52375-5.25-5.625-5.25v-1.75h-3.75v1.75c-3.10125 0-5.625 2.3555-5.625 5.25s2.52375 5.25 5.625 5.25h3.75c1.033125 0 1.875.784 1.875 1.75s-.841875 1.75-1.875 1.75h-3.75c-1.033125 0-1.875-.784-1.875-1.75h-3.75c0 2.8945 2.52375 5.25 5.625 5.25v1.75h3.75v-1.75c3.10125 0 5.625-2.3555 5.625-5.25s-2.52375-5.25-5.625-5.25h-3.75c-1.033125 0-1.875-.784-1.875-1.75s.841875-1.75 1.875-1.75z"/></g></g></svg>