<svg height="99" viewBox="0 0 99 99" width="99" xmlns="http://www.w3.org/2000/svg"><g fill="none" fill-rule="evenodd" transform=""><path d="m95.7 53.0285714c0 .9151572-.7387875 1.6571429-1.65 1.6571429h-89.1c-.9112125 0-1.65-.7419857-1.65-1.6571429v-3.3142857c0-.9151571.7387875-1.6571428 1.65-1.6571428h89.1c.9112125 0 1.65.7419857 1.65 1.6571428zm-61.05-45.25491426v28.68348576c0 .9151571.7387875 1.6571428 1.65 1.6571428s1.65-.7419857 1.65-1.6571428v-31.48571433c0-.91515714.7387875-1.65714286 1.65-1.65714286h8.25v36.45714289c0 .9151571.7387875 1.6571428 1.65 1.6571428s1.65-.7419857 1.65-1.6571428v-36.45714289h8.25c.9112125 0 1.65.74198572 1.65 1.65714286v31.48571433c0 .9151571.7387875 1.6571428 1.65 1.6571428s1.65-.7419857 1.65-1.6571428v-28.68348576c15.35985 5.91144286 25.7232937 20.46032856 26.334 36.96919996h-82.368c.61070625-16.5088714 10.97415-31.0577571 26.334-36.96919996zm59.4 36.96919996h-.066c-.6257625-18.3719142-12.4275937-34.4694-29.7099-40.52377139-.368775-2.41984285-2.4366375-4.20976428-4.8741-4.21908571h-19.8c-2.4374625.00932143-4.505325 1.79924286-4.8741 4.21908571-17.2823062 6.05437139-29.0841375 22.15185719-29.7099 40.52377139h-.066c-2.73384375 0-4.95 2.22575-4.95 4.9714286v3.3142857c0 2.7456786 2.21615625 4.9714286 4.95 4.9714286h89.1c2.7338438 0 4.95-2.22575 4.95-4.9714286v-3.3142857c0-2.7456786-2.2161562-4.9714286-4.95-4.9714286z" fill="#3e52aa"/><g fill="#df3838"><g transform="translate(0 66)"><path d="m41.25 6.6h-21.45c-2.7338437 0-4.95 2.21615625-4.95 4.95v6.6c0 .9112125.7387875 1.65 1.65 1.65s1.65-.7387875 1.65-1.65v-6.6c0-.9112125.7387875-1.65 1.65-1.65h21.45c.9112125 0 1.65-.7387875 1.65-1.65s-.7387875-1.65-1.65-1.65"/><path d="m90.75 19.8h4.95v-4.95h-4.95zm-11.55 9.9h-9.9c-6.3902438-.0187688-12.3054938-3.37755-15.5958-8.85555-1.4051813-2.3238188-4.4281875-3.0683813-6.7518-1.6632-.6808313.411675-1.251525.9823687-1.6632 1.6632-3.2890688 5.4759375-9.2014313 8.8345125-15.5892 8.85555h-9.9c-4.554-.0053625-8.2444313-3.696-8.25-8.25v-13.2c0-2.73384375 2.2161562-4.95 4.95-4.95h66c2.7338437 0 4.95 2.21615625 4.95 4.95v13.2c-.0053625 4.554-3.696 8.2446375-8.25 8.25zm-75.9-8.25h4.95v-4.95h-4.95zm0-8.25h4.95v-1.65h-4.95zm87.45-1.65h4.95v-1.65h-4.95zm6.6-4.95h-6.765c-.7893187-3.83851875-4.1660437-6.59505-8.085-6.6h-66c-4.554.0053625-8.24443125 3.696-8.25 8.25h-6.6c-.9112125 0-1.65.7387875-1.65 1.65v13.2c0 .9112125.7387875 1.65 1.65 1.65h7.095c1.4621063 4.8873 5.9538188 8.2390688 11.055 8.25h9.9c7.5504-.02145 14.5395938-3.9899063 18.4272-10.46265.47355-.758175 1.4722125-.9887625 2.2303875-.5152125.208725.13035.3848625.3064875.5152125.5152125 3.8876063 6.4727437 10.8768 10.4412 18.4272 10.46265h9.9c5.7364313-.0068062 10.5985688-4.2225563 11.418-9.9h6.732c.9112125 0 1.65-.7387875 1.65-1.65v-13.2c0-.9112125-.7387875-1.65-1.65-1.65z"/></g><path d="m50.5 72h-3c-.828375 0-1.5.671625-1.5 1.5s.671625 1.5 1.5 1.5h3c.828375 0 1.5-.671625 1.5-1.5s-.671625-1.5-1.5-1.5"/></g></g></svg>